# Blender 4.4.3
# www.blender.org
# mtllib button.mtl
o Cylinder
v 0.000000 -1.000000 -1.000000
v 0.000000 1.000000 -1.000000
v 0.195090 -1.000000 -0.980785
v 0.195090 1.000000 -0.980785
v 0.382683 -1.000000 -0.923880
v 0.382683 1.000000 -0.923880
v 0.555570 -1.000000 -0.831470
v 0.555570 1.000000 -0.831470
v 0.707107 -1.000000 -0.707107
v 0.707107 1.000000 -0.707107
v 0.831470 -1.000000 -0.555570
v 0.831470 1.000000 -0.555570
v 0.923880 -1.000000 -0.382683
v 0.923880 1.000000 -0.382683
v 0.980785 -1.000000 -0.195090
v 0.980785 1.000000 -0.195090
v 1.000000 -1.000000 0.000000
v 1.000000 1.000000 0.000000
v 0.980785 -1.000000 0.195090
v 0.980785 1.000000 0.195090
v 0.923880 -1.000000 0.382683
v 0.923880 1.000000 0.382683
v 0.831470 -1.000000 0.555570
v 0.831470 1.000000 0.555570
v 0.707107 -1.000000 0.707107
v 0.707107 1.000000 0.707107
v 0.555570 -1.000000 0.831470
v 0.555570 1.000000 0.831470
v 0.382683 -1.000000 0.923880
v 0.382683 1.000000 0.923880
v 0.195090 -1.000000 0.980785
v 0.195090 1.000000 0.980785
v 0.000000 -1.000000 1.000000
v 0.000000 1.000000 1.000000
v -0.195090 -1.000000 0.980785
v -0.195090 1.000000 0.980785
v -0.382683 -1.000000 0.923880
v -0.382683 1.000000 0.923880
v -0.555570 -1.000000 0.831470
v -0.555570 1.000000 0.831470
v -0.707107 -1.000000 0.707107
v -0.707107 1.000000 0.707107
v -0.831470 -1.000000 0.555570
v -0.831470 1.000000 0.555570
v -0.923880 -1.000000 0.382683
v -0.923880 1.000000 0.382683
v -0.980785 -1.000000 0.195090
v -0.980785 1.000000 0.195090
v -1.000000 -1.000000 0.000000
v -1.000000 1.000000 0.000000
v -0.980785 -1.000000 -0.195090
v -0.980785 1.000000 -0.195090
v -0.923880 -1.000000 -0.382683
v -0.923880 1.000000 -0.382683
v -0.831470 -1.000000 -0.555570
v -0.831470 1.000000 -0.555570
v -0.707107 -1.000000 -0.707107
v -0.707107 1.000000 -0.707107
v -0.555570 -1.000000 -0.831470
v -0.555570 1.000000 -0.831470
v -0.382683 -1.000000 -0.923880
v -0.382683 1.000000 -0.923880
v -0.195090 -1.000000 -0.980785
v -0.195090 1.000000 -0.980785
v 0.178735 1.000000 -0.898562
v 0.000000 1.000000 -0.916165
v 0.350601 1.000000 -0.846426
v 0.508994 1.000000 -0.761764
v 0.647827 1.000000 -0.647827
v 0.761764 1.000000 -0.508994
v 0.846426 1.000000 -0.350601
v 0.898562 1.000000 -0.178735
v 0.916165 1.000000 -0.000000
v 0.898562 1.000000 0.178735
v 0.846426 1.000000 0.350601
v 0.761764 1.000000 0.508994
v 0.647827 1.000000 0.647827
v 0.508994 1.000000 0.761764
v 0.350601 1.000000 0.846426
v 0.178735 1.000000 0.898562
v 0.000000 1.000000 0.916165
v -0.178735 1.000000 0.898562
v -0.350601 1.000000 0.846426
v -0.508994 1.000000 0.761764
v -0.647827 1.000000 0.647827
v -0.761764 1.000000 0.508994
v -0.846426 1.000000 0.350601
v -0.898562 1.000000 0.178735
v -0.916165 1.000000 -0.000000
v -0.898562 1.000000 -0.178735
v -0.846426 1.000000 -0.350601
v -0.761764 1.000000 -0.508994
v -0.647827 1.000000 -0.647827
v -0.508994 1.000000 -0.761764
v -0.350601 1.000000 -0.846426
v -0.178735 1.000000 -0.898562
v 0.157554 1.054510 -0.792078
v 0.000000 1.054510 -0.807596
v 0.309054 1.054510 -0.746121
v 0.448676 1.054510 -0.671492
v 0.571057 1.054510 -0.571057
v 0.671492 1.054510 -0.448676
v 0.746121 1.054510 -0.309054
v 0.792078 1.054510 -0.157554
v 0.807596 1.054510 -0.000000
v 0.792078 1.054510 0.157554
v 0.746121 1.054510 0.309054
v 0.671492 1.054510 0.448676
v 0.571057 1.054510 0.571057
v 0.448676 1.054510 0.671492
v 0.309054 1.054510 0.746121
v 0.157554 1.054510 0.792078
v 0.000000 1.054510 0.807596
v -0.157554 1.054510 0.792078
v -0.309054 1.054510 0.746121
v -0.448676 1.054510 0.671492
v -0.571057 1.054510 0.571057
v -0.671492 1.054510 0.448676
v -0.746121 1.054510 0.309054
v -0.792078 1.054510 0.157554
v -0.807596 1.054510 -0.000000
v -0.792078 1.054510 -0.157554
v -0.746121 1.054510 -0.309054
v -0.671492 1.054510 -0.448676
v -0.571057 1.054510 -0.571057
v -0.448676 1.054510 -0.671492
v -0.309054 1.054510 -0.746121
v -0.157554 1.054510 -0.792078
v 0.131469 1.054510 -0.660941
v 0.000000 1.054510 -0.673890
v 0.257886 1.054510 -0.622593
v 0.374393 1.054510 -0.560319
v 0.476512 1.054510 -0.476512
v 0.560319 1.054510 -0.374393
v 0.622593 1.054510 -0.257886
v 0.660941 1.054510 -0.131469
v 0.673890 1.054510 -0.000000
v 0.660941 1.054510 0.131469
v 0.622593 1.054510 0.257886
v 0.560319 1.054510 0.374393
v 0.476512 1.054510 0.476512
v 0.374393 1.054510 0.560319
v 0.257886 1.054510 0.622593
v 0.131469 1.054510 0.660941
v 0.000000 1.054510 0.673890
v -0.131469 1.054510 0.660941
v -0.257886 1.054510 0.622593
v -0.374393 1.054510 0.560319
v -0.476512 1.054510 0.476512
v -0.560319 1.054510 0.374393
v -0.622593 1.054510 0.257886
v -0.660941 1.054510 0.131469
v -0.673890 1.054510 -0.000000
v -0.660941 1.054510 -0.131469
v -0.622593 1.054510 -0.257886
v -0.560319 1.054510 -0.374393
v -0.476512 1.054510 -0.476512
v -0.374393 1.054510 -0.560319
v -0.257886 1.054510 -0.622593
v -0.131469 1.054510 -0.660941
vn 0.0980 -0.0000 -0.9952
vn 0.2903 -0.0000 -0.9569
vn 0.4714 -0.0000 -0.8819
vn 0.6344 -0.0000 -0.7730
vn 0.7730 -0.0000 -0.6344
vn 0.8819 -0.0000 -0.4714
vn 0.9569 -0.0000 -0.2903
vn 0.9952 -0.0000 -0.0980
vn 0.9952 -0.0000 0.0980
vn 0.9569 -0.0000 0.2903
vn 0.8819 -0.0000 0.4714
vn 0.7730 -0.0000 0.6344
vn 0.6344 -0.0000 0.7730
vn 0.4714 -0.0000 0.8819
vn 0.2903 -0.0000 0.9569
vn 0.0980 -0.0000 0.9952
vn -0.0980 -0.0000 0.9952
vn -0.2903 -0.0000 0.9569
vn -0.4714 -0.0000 0.8819
vn -0.6344 -0.0000 0.7730
vn -0.7730 -0.0000 0.6344
vn -0.8819 -0.0000 0.4714
vn -0.9569 -0.0000 0.2903
vn -0.9952 -0.0000 0.0980
vn -0.9952 -0.0000 -0.0980
vn -0.9569 -0.0000 -0.2903
vn -0.8819 -0.0000 -0.4714
vn -0.7730 -0.0000 -0.6344
vn -0.6344 -0.0000 -0.7730
vn -0.4714 -0.0000 -0.8819
vn -0.0000 1.0000 -0.0000
vn -0.2903 -0.0000 -0.9569
vn -0.0980 -0.0000 -0.9952
vn -0.0000 -1.0000 -0.0000
vn -0.3972 0.8928 -0.2123
vn 0.2123 0.8928 0.3972
vn 0.0441 0.8928 -0.4483
vn -0.3482 0.8928 -0.2857
vn 0.1308 0.8928 0.4310
vn 0.1308 0.8928 -0.4310
vn -0.2857 0.8928 -0.3482
vn 0.0441 0.8928 0.4483
vn 0.2123 0.8928 -0.3972
vn -0.2123 0.8928 -0.3972
vn -0.0441 0.8928 0.4483
vn 0.2857 0.8928 -0.3482
vn -0.1308 0.8928 -0.4310
vn -0.1308 0.8928 0.4310
vn 0.3482 0.8928 -0.2857
vn -0.0441 0.8928 -0.4483
vn -0.2123 0.8928 0.3972
vn 0.3972 0.8928 -0.2123
vn -0.2857 0.8928 0.3482
vn 0.4310 0.8928 -0.1308
vn -0.3482 0.8928 0.2857
vn 0.4483 0.8928 -0.0441
vn -0.3972 0.8928 0.2123
vn 0.4483 0.8928 0.0441
vn -0.4310 0.8928 0.1308
vn 0.4310 0.8928 0.1308
vn -0.4483 0.8928 0.0441
vn 0.3972 0.8928 0.2123
vn -0.4483 0.8928 -0.0441
vn 0.3482 0.8928 0.2857
vn -0.4310 0.8928 -0.1308
vn 0.2857 0.8928 0.3482
vt 1.000000 0.500000
vt 1.000000 1.000000
vt 0.968750 1.000000
vt 0.968750 0.500000
vt 0.937500 1.000000
vt 0.937500 0.500000
vt 0.906250 1.000000
vt 0.906250 0.500000
vt 0.875000 1.000000
vt 0.875000 0.500000
vt 0.843750 1.000000
vt 0.843750 0.500000
vt 0.812500 1.000000
vt 0.812500 0.500000
vt 0.781250 1.000000
vt 0.781250 0.500000
vt 0.750000 1.000000
vt 0.750000 0.500000
vt 0.718750 1.000000
vt 0.718750 0.500000
vt 0.687500 1.000000
vt 0.687500 0.500000
vt 0.656250 1.000000
vt 0.656250 0.500000
vt 0.625000 1.000000
vt 0.625000 0.500000
vt 0.593750 1.000000
vt 0.593750 0.500000
vt 0.562500 1.000000
vt 0.562500 0.500000
vt 0.531250 1.000000
vt 0.531250 0.500000
vt 0.500000 1.000000
vt 0.500000 0.500000
vt 0.468750 1.000000
vt 0.468750 0.500000
vt 0.437500 1.000000
vt 0.437500 0.500000
vt 0.406250 1.000000
vt 0.406250 0.500000
vt 0.375000 1.000000
vt 0.375000 0.500000
vt 0.343750 1.000000
vt 0.343750 0.500000
vt 0.312500 1.000000
vt 0.312500 0.500000
vt 0.281250 1.000000
vt 0.281250 0.500000
vt 0.250000 1.000000
vt 0.250000 0.500000
vt 0.218750 1.000000
vt 0.218750 0.500000
vt 0.187500 1.000000
vt 0.187500 0.500000
vt 0.156250 1.000000
vt 0.156250 0.500000
vt 0.125000 1.000000
vt 0.125000 0.500000
vt 0.093750 1.000000
vt 0.093750 0.500000
vt 0.062500 1.000000
vt 0.062500 0.500000
vt 0.031250 1.000000
vt 0.031250 0.500000
vt 0.000000 1.000000
vt 0.000000 0.500000
vt 0.750000 0.490000
vt 0.796822 0.485388
vt 0.841844 0.471731
vt 0.883337 0.449553
vt 0.919706 0.419706
vt 0.949553 0.383337
vt 0.971731 0.341844
vt 0.985388 0.296822
vt 0.990000 0.250000
vt 0.985388 0.203178
vt 0.971731 0.158156
vt 0.949553 0.116663
vt 0.919706 0.080294
vt 0.883337 0.050447
vt 0.841844 0.028269
vt 0.796822 0.014612
vt 0.750000 0.010000
vt 0.703178 0.014612
vt 0.658156 0.028269
vt 0.616663 0.050447
vt 0.580294 0.080294
vt 0.550447 0.116663
vt 0.528269 0.158156
vt 0.514612 0.203178
vt 0.510000 0.250000
vt 0.514612 0.296822
vt 0.528269 0.341844
vt 0.550447 0.383337
vt 0.580294 0.419706
vt 0.616663 0.449553
vt 0.658156 0.471731
vt 0.703178 0.485388
vt 0.296822 0.485388
vt 0.250000 0.490000
vt 0.203178 0.485388
vt 0.158156 0.471731
vt 0.116663 0.449553
vt 0.080294 0.419706
vt 0.050447 0.383337
vt 0.028269 0.341844
vt 0.014612 0.296822
vt 0.010000 0.250000
vt 0.014612 0.203178
vt 0.028269 0.158156
vt 0.050447 0.116663
vt 0.080294 0.080294
vt 0.116663 0.050447
vt 0.158156 0.028269
vt 0.203178 0.014612
vt 0.250000 0.010000
vt 0.296822 0.014612
vt 0.341844 0.028269
vt 0.383337 0.050447
vt 0.419706 0.080294
vt 0.449553 0.116663
vt 0.471731 0.158156
vt 0.485388 0.203178
vt 0.490000 0.250000
vt 0.485388 0.296822
vt 0.471731 0.341844
vt 0.449553 0.383337
vt 0.419706 0.419706
vt 0.383337 0.449553
vt 0.341844 0.471731
s 0
f 1/1/1 2/2/1 4/3/1 3/4/1
f 3/4/2 4/3/2 6/5/2 5/6/2
f 5/6/3 6/5/3 8/7/3 7/8/3
f 7/8/4 8/7/4 10/9/4 9/10/4
f 9/10/5 10/9/5 12/11/5 11/12/5
f 11/12/6 12/11/6 14/13/6 13/14/6
f 13/14/7 14/13/7 16/15/7 15/16/7
f 15/16/8 16/15/8 18/17/8 17/18/8
f 17/18/9 18/17/9 20/19/9 19/20/9
f 19/20/10 20/19/10 22/21/10 21/22/10
f 21/22/11 22/21/11 24/23/11 23/24/11
f 23/24/12 24/23/12 26/25/12 25/26/12
f 25/26/13 26/25/13 28/27/13 27/28/13
f 27/28/14 28/27/14 30/29/14 29/30/14
f 29/30/15 30/29/15 32/31/15 31/32/15
f 31/32/16 32/31/16 34/33/16 33/34/16
f 33/34/17 34/33/17 36/35/17 35/36/17
f 35/36/18 36/35/18 38/37/18 37/38/18
f 37/38/19 38/37/19 40/39/19 39/40/19
f 39/40/20 40/39/20 42/41/20 41/42/20
f 41/42/21 42/41/21 44/43/21 43/44/21
f 43/44/22 44/43/22 46/45/22 45/46/22
f 45/46/23 46/45/23 48/47/23 47/48/23
f 47/48/24 48/47/24 50/49/24 49/50/24
f 49/50/25 50/49/25 52/51/25 51/52/25
f 51/52/26 52/51/26 54/53/26 53/54/26
f 53/54/27 54/53/27 56/55/27 55/56/27
f 55/56/28 56/55/28 58/57/28 57/58/28
f 57/58/29 58/57/29 60/59/29 59/60/29
f 59/60/30 60/59/30 62/61/30 61/62/30
f 48/47/31 46/45/31 87/45/31 88/47/31
f 61/62/32 62/61/32 64/63/32 63/64/32
f 63/64/33 64/63/33 2/65/33 1/66/33
f 1/67/34 3/68/34 5/69/34 7/70/34 9/71/34 11/72/34 13/73/34 15/74/34 17/75/34 19/76/34 21/77/34 23/78/34 25/79/34 27/80/34 29/81/34 31/82/34 33/83/34 35/84/34 37/85/34 39/86/34 41/87/34 43/88/34 45/89/34 47/90/34 49/91/34 51/92/34 53/93/34 55/94/34 57/95/34 59/96/34 61/97/34 63/98/34
f 92/55/35 91/53/35 123/53/35 124/55/35
f 4/3/31 2/2/31 66/2/31 65/3/31
f 2/65/31 64/63/31 96/63/31 66/65/31
f 22/21/31 20/19/31 74/19/31 75/21/31
f 40/39/31 38/37/31 83/37/31 84/39/31
f 58/57/31 56/55/31 92/55/31 93/57/31
f 14/13/31 12/11/31 70/11/31 71/13/31
f 32/31/31 30/29/31 79/29/31 80/31/31
f 50/49/31 48/47/31 88/47/31 89/49/31
f 6/5/31 4/3/31 65/3/31 67/5/31
f 24/23/31 22/21/31 75/21/31 76/23/31
f 42/41/31 40/39/31 84/39/31 85/41/31
f 60/59/31 58/57/31 93/57/31 94/59/31
f 16/15/31 14/13/31 71/13/31 72/15/31
f 34/33/31 32/31/31 80/31/31 81/33/31
f 52/51/31 50/49/31 89/49/31 90/51/31
f 8/7/31 6/5/31 67/5/31 68/7/31
f 26/25/31 24/23/31 76/23/31 77/25/31
f 44/43/31 42/41/31 85/41/31 86/43/31
f 62/61/31 60/59/31 94/59/31 95/61/31
f 18/17/31 16/15/31 72/15/31 73/17/31
f 36/35/31 34/33/31 81/33/31 82/35/31
f 54/53/31 52/51/31 90/51/31 91/53/31
f 10/9/31 8/7/31 68/7/31 69/9/31
f 28/27/31 26/25/31 77/25/31 78/27/31
f 46/45/31 44/43/31 86/43/31 87/45/31
f 64/63/31 62/61/31 95/61/31 96/63/31
f 20/19/31 18/17/31 73/17/31 74/19/31
f 38/37/31 36/35/31 82/35/31 83/37/31
f 56/55/31 54/53/31 91/53/31 92/55/31
f 12/11/31 10/9/31 69/9/31 70/11/31
f 30/29/31 28/27/31 78/27/31 79/29/31
f 100/7/31 99/5/31 131/5/31 132/7/31
f 79/29/36 78/27/36 110/27/36 111/29/36
f 65/3/37 66/2/37 98/2/37 97/3/37
f 93/57/38 92/55/38 124/55/38 125/57/38
f 80/31/39 79/29/39 111/29/39 112/31/39
f 67/5/40 65/3/40 97/3/40 99/5/40
f 94/59/41 93/57/41 125/57/41 126/59/41
f 81/33/42 80/31/42 112/31/42 113/33/42
f 68/7/43 67/5/43 99/5/43 100/7/43
f 95/61/44 94/59/44 126/59/44 127/61/44
f 82/35/45 81/33/45 113/33/45 114/35/45
f 69/9/46 68/7/46 100/7/46 101/9/46
f 96/63/47 95/61/47 127/61/47 128/63/47
f 83/37/48 82/35/48 114/35/48 115/37/48
f 70/11/49 69/9/49 101/9/49 102/11/49
f 66/65/50 96/63/50 128/63/50 98/65/50
f 84/39/51 83/37/51 115/37/51 116/39/51
f 71/13/52 70/11/52 102/11/52 103/13/52
f 85/41/53 84/39/53 116/39/53 117/41/53
f 72/15/54 71/13/54 103/13/54 104/15/54
f 86/43/55 85/41/55 117/41/55 118/43/55
f 73/17/56 72/15/56 104/15/56 105/17/56
f 87/45/57 86/43/57 118/43/57 119/45/57
f 74/19/58 73/17/58 105/17/58 106/19/58
f 88/47/59 87/45/59 119/45/59 120/47/59
f 75/21/60 74/19/60 106/19/60 107/21/60
f 89/49/61 88/47/61 120/47/61 121/49/61
f 76/23/62 75/21/62 107/21/62 108/23/62
f 90/51/63 89/49/63 121/49/63 122/51/63
f 77/25/64 76/23/64 108/23/64 109/25/64
f 91/53/65 90/51/65 122/51/65 123/53/65
f 78/27/66 77/25/66 109/25/66 110/27/66
f 129/99/31 130/100/31 160/101/31 159/102/31 158/103/31 157/104/31 156/105/31 155/106/31 154/107/31 153/108/31 152/109/31 151/110/31 150/111/31 149/112/31 148/113/31 147/114/31 146/115/31 145/116/31 144/117/31 143/118/31 142/119/31 141/120/31 140/121/31 139/122/31 138/123/31 137/124/31 136/125/31 135/126/31 134/127/31 133/128/31 132/129/31 131/130/31
f 127/61/31 126/59/31 158/59/31 159/61/31
f 114/35/31 113/33/31 145/33/31 146/35/31
f 101/9/31 100/7/31 132/7/31 133/9/31
f 128/63/31 127/61/31 159/61/31 160/63/31
f 115/37/31 114/35/31 146/35/31 147/37/31
f 102/11/31 101/9/31 133/9/31 134/11/31
f 98/65/31 128/63/31 160/63/31 130/65/31
f 116/39/31 115/37/31 147/37/31 148/39/31
f 103/13/31 102/11/31 134/11/31 135/13/31
f 117/41/31 116/39/31 148/39/31 149/41/31
f 104/15/31 103/13/31 135/13/31 136/15/31
f 118/43/31 117/41/31 149/41/31 150/43/31
f 105/17/31 104/15/31 136/15/31 137/17/31
f 119/45/31 118/43/31 150/43/31 151/45/31
f 106/19/31 105/17/31 137/17/31 138/19/31
f 120/47/31 119/45/31 151/45/31 152/47/31
f 107/21/31 106/19/31 138/19/31 139/21/31
f 121/49/31 120/47/31 152/47/31 153/49/31
f 108/23/31 107/21/31 139/21/31 140/23/31
f 122/51/31 121/49/31 153/49/31 154/51/31
f 109/25/31 108/23/31 140/23/31 141/25/31
f 123/53/31 122/51/31 154/51/31 155/53/31
f 110/27/31 109/25/31 141/25/31 142/27/31
f 124/55/31 123/53/31 155/53/31 156/55/31
f 111/29/31 110/27/31 142/27/31 143/29/31
f 97/3/31 98/2/31 130/2/31 129/3/31
f 125/57/31 124/55/31 156/55/31 157/57/31
f 112/31/31 111/29/31 143/29/31 144/31/31
f 99/5/31 97/3/31 129/3/31 131/5/31
f 126/59/31 125/57/31 157/57/31 158/59/31
f 113/33/31 112/31/31 144/31/31 145/33/31
